<?xml version="1.0" standalone="no"?>
<!DOCTYPE svg PUBLIC "-//W3C//DTD SVG 20010904//EN"
 "http://www.w3.org/TR/2001/REC-SVG-20010904/DTD/svg10.dtd">
<svg version="1.0" xmlns="http://www.w3.org/2000/svg"
 width="120.000000pt" height="120.000000pt" viewBox="0 0 120.000000 120.000000"
 preserveAspectRatio="xMidYMid meet">

<g transform="translate(0.000000,120.000000) scale(0.100000,-0.100000)"
fill="#4D869C" stroke="none">
<path d="M780 1020 l145 -5 3 -147 c2 -97 -1 -148 -8 -148 -5 0 -10 -8 -10
-17 0 -16 -2 -16 -10 -3 -6 9 -10 72 -9 149 l2 134 -79 -3 c-43 -1 -209 -5
-369 -9 l-290 -6 0 -332 c0 -182 3 -334 6 -337 3 -3 159 -6 347 -7 281 -1 342
-3 342 -14 0 -9 -16 -15 -47 -18 l-48 -3 53 -2 c44 -2 53 -5 50 -19 -2 -10
-18 -21 -38 -26 -49 -12 -59 -25 -36 -43 15 -10 50 -14 130 -14 159 0 216 8
216 31 0 11 -12 22 -35 29 -26 9 -37 20 -45 43 l-10 32 5 -33 c3 -17 8 -46 11
-62 l7 -30 -90 0 -90 0 -12 62 c-18 91 -55 163 -91 177 -17 6 -44 16 -60 22
-45 17 -82 99 -45 99 8 0 15 -6 15 -14 0 -18 38 -46 62 -46 45 0 65 72 28 105
-15 13 -29 16 -59 11 -46 -7 -65 9 -36 31 25 17 79 17 115 -2 46 -24 37 1 -20
57 -50 49 -56 68 -21 68 19 0 82 -61 101 -98 6 -13 14 -21 17 -18 3 3 -6 30
-21 59 -29 60 -33 87 -12 87 8 0 25 -24 39 -52 13 -29 29 -64 36 -78 10 -21
11 -17 6 28 -3 31 -2 52 4 52 14 0 19 -10 35 -71 8 -30 15 -44 15 -32 1 13 -8
46 -19 75 -17 44 -20 77 -20 194 0 120 -2 143 -16 148 -9 3 -77 5 -152 4
l-137 -2 145 -6z m-366 -146 c10 -27 -26 -73 -78 -99 -28 -14 -58 -25 -68 -25
-10 0 -18 -6 -18 -14 0 -16 38 -66 51 -66 5 0 25 18 45 39 58 65 125 103 175
99 133 -10 19 -139 -136 -155 -67 -7 -75 -13 -75 -63 1 -39 14 -61 48 -79 33
-17 58 -6 77 37 35 75 93 106 125 67 15 -17 7 -19 -21 -5 -27 15 -53 -1 -74
-47 -26 -55 -44 -73 -77 -73 -62 0 -104 53 -95 120 4 31 0 41 -24 64 -16 15
-32 40 -36 54 -3 15 -12 37 -20 49 -8 12 -10 24 -5 27 6 3 13 -2 16 -11 6 -14
12 -9 32 25 14 23 37 49 52 57 37 20 98 19 106 -1z m253 -306 c31 -17 51 -34
45 -36 -18 -6 -112 39 -112 54 0 19 3 18 67 -18z m-189 -226 c29 -37 16 -42
-98 -42 -60 0 -110 2 -110 4 0 3 4 16 10 30 7 19 17 25 47 28 69 6 137 -3 151
-20z"/>
<path d="M334 866 c-52 -23 -97 -96 -59 -96 48 0 136 74 120 100 -8 13 -23 12
-61 -4z"/>
<path d="M463 777 c-49 -25 -123 -90 -123 -107 0 -12 22 -9 101 11 48 12 119
64 119 88 0 11 -9 21 -22 25 -31 8 -27 8 -75 -17z"/>
<path d="M382 1013 c37 -2 100 -2 140 0 40 1 10 3 -67 3 -77 0 -110 -1 -73 -3z"/>
<path d="M104 997 c-2 -7 -3 -105 -1 -217 l2 -205 3 212 2 212 53 4 52 3 -53
2 c-35 1 -54 -2 -58 -11z"/>
<path d="M982 550 c0 -14 2 -19 5 -12 2 6 2 18 0 25 -3 6 -5 1 -5 -13z"/>
<path d="M113 480 c0 -47 2 -66 4 -42 2 23 2 61 0 85 -2 23 -4 4 -4 -43z"/>
<path d="M991 510 c0 -8 6 -37 13 -65 8 -27 15 -43 15 -35 0 8 -6 38 -13 65
-8 28 -15 43 -15 35z"/>
<path d="M1022 365 c0 -16 2 -22 5 -12 2 9 2 23 0 30 -3 6 -5 -1 -5 -18z"/>
<path d="M124 315 c1 -46 5 -60 16 -61 8 0 10 1 3 3 -7 3 -14 29 -16 61 l-3
57 0 -60z"/>
<path d="M1032 310 c0 -14 2 -19 5 -12 2 6 2 18 0 25 -3 6 -5 1 -5 -13z"/>
<path d="M348 243 c45 -2 119 -2 165 0 45 1 8 3 -83 3 -91 0 -128 -2 -82 -3z"/>
</g>
</svg>
