<?xml version="1.0" standalone="no"?>
<!DOCTYPE svg PUBLIC "-//W3C//DTD SVG 20010904//EN"
 "http://www.w3.org/TR/2001/REC-SVG-20010904/DTD/svg10.dtd">
<svg version="1.0" xmlns="http://www.w3.org/2000/svg"
 width="120.000000pt" height="120.000000pt" viewBox="0 0 120.000000 120.000000"
 preserveAspectRatio="xMidYMid meet">

<g transform="translate(0.000000,120.000000) scale(0.100000,-0.100000)"
fill="#4D869C" stroke="none">
<path d="M520 1117 c-20 -15 -50 -58 -50 -71 0 -5 10 6 23 25 12 18 34 39 47
46 14 7 18 13 10 13 -8 -1 -22 -6 -30 -13z"/>
<path d="M607 1116 c17 -8 37 -24 43 -36 10 -19 6 -23 -75 -61 -87 -41 -105
-42 -105 -9 0 16 -6 14 -37 -15 -32 -29 -35 -36 -23 -50 10 -12 24 -15 49 -12
20 2 54 0 77 -6 71 -18 126 12 140 77 4 17 15 37 25 44 21 15 26 61 7 63 -7 1
-29 2 -48 4 -19 1 -46 5 -60 9 -17 5 -15 2 7 -8z m78 -35 c-3 -6 -11 -8 -17
-5 -6 4 -5 9 3 15 16 10 23 4 14 -10z m-20 -83 c-16 -55 -81 -82 -140 -59 -17
7 -7 14 55 44 90 43 93 43 85 15z m-195 -18 c0 -5 -7 -10 -16 -10 -8 0 -12 5
-9 10 3 6 10 10 16 10 5 0 9 -4 9 -10z"/>
<path d="M924 989 c-18 -17 -24 -19 -47 -8 -34 16 -44 6 -27 -26 12 -23 12
-27 -8 -41 -22 -15 -30 -44 -12 -44 5 0 7 6 4 14 -3 7 7 21 21 30 26 17 26 18
9 37 -23 25 -13 33 21 17 23 -10 28 -10 36 5 13 22 26 22 32 0 3 -11 5 -7 6
10 1 32 -7 34 -35 6z"/>
<path d="M205 960 c-14 -22 -23 -70 -14 -70 5 0 9 10 9 23 0 31 15 51 30 42 9
-5 11 -4 6 3 -9 15 -23 15 -31 2z"/>
<path d="M940 941 c0 -6 10 -17 21 -25 14 -10 19 -21 15 -32 -5 -14 -4 -15 9
-4 19 16 20 12 -15 43 -16 15 -30 23 -30 18z"/>
<path d="M240 926 c0 -8 4 -17 9 -20 5 -4 7 3 4 14 -6 23 -13 26 -13 6z"/>
<path d="M278 903 c7 -3 16 -2 19 1 4 3 -2 6 -13 5 -11 0 -14 -3 -6 -6z"/>
<path d="M315 900 c4 -6 -7 -16 -23 -23 -23 -10 -28 -16 -21 -32 6 -15 8 -16
8 -4 1 9 12 24 26 33 26 17 33 36 14 36 -5 0 -7 -5 -4 -10z"/>
<path d="M865 890 c-17 -7 -17 -9 -2 -9 12 -1 17 -9 17 -32 0 -24 4 -30 17
-27 10 2 19 12 21 23 4 20 4 20 -13 0 -16 -19 -16 -19 -11 18 5 39 3 41 -29
27z"/>
<path d="M920 886 c0 -9 7 -12 21 -9 16 4 17 8 7 14 -19 13 -28 11 -28 -5z"/>
<path d="M127 884 c-10 -11 3 -24 24 -24 22 0 23 -8 9 -46 -8 -19 -8 -30 0
-38 11 -11 26 3 50 43 6 12 13 9 32 -14 25 -29 49 -28 47 3 -1 15 -2 15 -6 -1
-7 -26 -25 -16 -45 22 l-16 33 -16 -29 c-14 -29 -46 -62 -46 -49 0 4 6 22 14
41 16 38 13 45 -23 46 -24 0 -24 1 -6 9 15 6 16 9 4 9 -9 1 -19 -2 -22 -5z"/>
<path d="M571 870 c-13 -6 -35 -18 -50 -29 -15 -11 -52 -20 -90 -24 -39 -3
-70 -12 -80 -22 -15 -15 -13 -15 21 0 46 19 111 20 106 3 -3 -7 -19 -14 -36
-16 -23 -2 -32 -8 -32 -22 0 -34 207 -103 348 -115 37 -4 78 -8 92 -10 14 -2
19 -2 13 1 -20 9 -15 34 6 34 23 0 36 -16 21 -23 -7 -4 -6 -5 1 -3 18 3 13 20
-10 31 -11 5 -21 18 -21 27 0 15 4 16 28 6 53 -23 82 -49 82 -73 0 -25 -7 -28
-70 -38 -20 -3 -18 -5 8 -6 45 -1 72 15 72 44 0 26 -42 63 -97 85 -19 7 -33
20 -33 29 0 28 -36 77 -74 100 -41 26 -165 38 -205 21z m-113 -112 c-3 -7 -11
-13 -18 -13 -7 0 -15 6 -17 13 -3 7 4 12 17 12 13 0 20 -5 18 -12z"/>
<path d="M330 764 c0 -22 41 -63 80 -80 48 -21 53 -43 10 -36 -24 3 -30 1 -30
-14 0 -15 2 -16 9 -5 7 11 10 10 14 -5 4 -16 5 -17 6 -1 2 30 17 18 30 -23 6
-21 16 -42 21 -45 5 -3 2 11 -6 31 -22 53 -12 51 24 -3 18 -27 43 -63 57 -82
32 -43 37 -137 8 -144 -13 -3 -12 -5 5 -6 23 -1 23 -3 16 -73 -10 -116 -58
-173 -157 -189 l-52 -8 51 3 c33 2 62 11 82 24 42 30 92 29 122 -3 13 -14 27
-25 32 -25 5 0 -3 10 -17 23 -15 12 -30 38 -35 57 -7 32 -8 33 -9 8 -1 -21 -6
-28 -21 -28 -11 0 -20 6 -20 13 0 7 9 23 20 35 14 15 20 35 20 69 0 63 8 91
29 96 14 4 14 5 -2 6 -14 1 -16 7 -12 29 6 27 6 27 -8 -3 -14 -30 -14 -30 -18
33 l-4 62 29 0 c21 0 27 -4 22 -15 -15 -38 -15 -47 0 -19 9 17 33 39 52 49 20
9 53 30 74 47 47 36 49 26 6 -20 -25 -26 -27 -32 -11 -23 12 6 33 26 47 43 14
18 26 27 26 19 0 -8 -16 -35 -37 -60 l-36 -46 53 50 c58 56 54 34 -11 -47 -20
-26 -40 -61 -44 -77 -6 -27 -11 -30 -53 -34 -39 -3 -37 -4 11 -3 l57 1 -5 -35
-6 -35 15 40 c19 50 20 55 1 55 -21 0 -5 37 47 104 l43 55 23 -22 c13 -12 32
-38 43 -57 10 -19 18 -30 19 -24 0 16 -58 104 -70 104 -5 0 -10 7 -10 15 0 8
-7 15 -16 15 -10 0 -14 6 -10 15 3 8 4 15 3 16 -1 0 -22 2 -47 5 -110 12 -326
71 -398 108 -17 9 -38 29 -46 44 -9 15 -15 22 -16 16z"/>
<path d="M395 578 c5 -30 3 -38 -9 -38 -23 0 -75 -49 -97 -91 -10 -22 -22 -60
-24 -86 l-5 -48 13 55 c17 71 40 114 74 138 51 35 60 34 78 -6 21 -48 12 -12
-15 58 -18 47 -20 50 -15 18z"/>
<path d="M421 584 c0 -11 3 -14 6 -6 3 7 2 16 -1 19 -3 4 -6 -2 -5 -13z"/>
<path d="M442 438 c-2 -21 -7 -28 -22 -28 -18 0 -20 -6 -18 -67 l2 -68 3 56 4
56 37 -13 c20 -7 48 -13 62 -12 16 0 10 3 -17 10 -40 9 -42 11 -46 51 -2 24
-4 30 -5 15z"/>
<path d="M943 375 c0 -22 2 -30 4 -17 2 12 2 30 0 40 -3 9 -5 -1 -4 -23z"/>
<path d="M252 270 c0 -19 2 -27 5 -17 2 9 2 25 0 35 -3 9 -5 1 -5 -18z"/>
<path d="M943 235 c0 -27 2 -38 4 -22 2 15 2 37 0 50 -2 12 -4 0 -4 -28z"/>
<path d="M391 254 c0 -11 3 -14 6 -6 3 7 2 16 -1 19 -3 4 -6 -2 -5 -13z"/>
<path d="M743 230 c0 -25 2 -35 4 -22 2 12 2 32 0 45 -2 12 -4 2 -4 -23z"/>
<path d="M892 224 c-19 -64 -50 -104 -95 -124 -23 -11 -35 -20 -26 -20 9 0 33
11 53 25 32 22 49 25 129 27 58 1 73 3 40 5 -44 3 -52 7 -56 26 l-4 22 -2 -22
c-1 -19 -7 -23 -31 -23 -16 0 -30 2 -30 4 0 2 9 24 21 50 11 26 19 52 17 58
-2 6 -9 -7 -16 -28z"/>
<path d="M265 210 c3 -14 8 -35 11 -47 5 -19 1 -22 -33 -26 -35 -3 -34 -4 11
-5 30 -1 58 -9 70 -19 12 -10 9 -4 -6 12 -15 17 -34 48 -43 70 -8 22 -13 29
-10 15z"/>
<path d="M688 73 c12 -2 32 -2 45 0 12 2 2 4 -23 4 -25 0 -35 -2 -22 -4z"/>
</g>
</svg>
