<?xml version="1.0" standalone="no"?>
<!DOCTYPE svg PUBLIC "-//W3C//DTD SVG 20010904//EN"
 "http://www.w3.org/TR/2001/REC-SVG-20010904/DTD/svg10.dtd">
<svg version="1.0" xmlns="http://www.w3.org/2000/svg"
 width="120.000000pt" height="120.000000pt" viewBox="0 0 120.000000 120.000000"
 preserveAspectRatio="xMidYMid meet">

<g transform="translate(0.000000,120.000000) scale(0.100000,-0.100000)"
fill="#4D869C" stroke="none">
<path d="M661 1088 c-10 -26 -5 -35 24 -40 23 -4 33 26 15 47 -17 21 -29 19
-39 -7z m39 -14 c0 -8 -7 -14 -15 -14 -15 0 -21 21 -9 33 10 9 24 -2 24 -19z"/>
<path d="M432 1070 c-10 -28 -9 -32 14 -42 45 -21 60 31 18 59 -20 13 -22 12
-32 -17z m36 -3 c13 -15 -1 -42 -17 -33 -13 8 -15 46 -2 46 5 0 13 -6 19 -13z"/>
<path d="M690 976 c-52 -19 -133 -49 -180 -69 -219 -89 -255 -114 -216 -143
10 -6 18 -16 18 -21 0 -15 40 -88 74 -136 l34 -47 -63 0 c-81 0 -111 16 -115
58 -4 38 10 59 53 79 l30 14 -30 -6 c-39 -8 -65 -39 -65 -80 0 -51 27 -68 125
-74 70 -5 87 -10 109 -30 26 -24 31 -45 20 -75 -10 -26 -36 -20 -29 7 6 21 5
21 -9 3 -18 -22 -12 -36 15 -36 25 0 24 -5 -6 -44 -30 -39 -64 -115 -80 -176
-10 -41 -14 -45 -49 -51 -46 -8 -65 -24 -47 -41 8 -9 55 -13 159 -13 194 0
247 15 166 46 l-35 14 28 37 c15 20 43 48 60 63 l33 27 -6 -60 c-4 -38 -3 -62
4 -66 16 -10 198 53 217 74 16 17 14 21 -25 60 -41 41 -41 42 -23 62 16 18 16
21 2 31 -13 10 -14 16 -5 30 9 14 7 21 -7 31 -11 9 -15 20 -11 31 4 11 1 22
-7 29 -32 26 -39 53 -23 91 l15 36 26 -21 c38 -30 50 -24 13 6 -26 22 -30 32
-25 53 4 14 14 35 23 45 15 17 15 19 1 14 -14 -5 -17 7 -23 80 -6 81 -5 88 15
105 24 19 18 22 -13 6 -17 -9 -19 -8 -16 7 2 10 17 22 35 27 44 13 88 -6 107
-48 29 -61 21 -88 -51 -170 -49 -56 -57 -97 -22 -115 12 -7 18 -18 15 -26 -3
-9 -1 -12 4 -9 17 10 11 33 -10 40 -32 10 -25 50 19 98 69 76 83 119 57 182
-24 56 -82 75 -148 50 -13 -5 -17 0 -20 21 -2 15 -7 29 -13 31 -5 1 -53 -12
-105 -31z m95 -25 c-12 -11 -444 -191 -459 -191 -22 0 12 18 99 53 50 20 149
61 220 91 129 55 158 65 140 47z m-160 -167 l20 -30 40 17 c22 10 43 15 47 13
14 -9 9 -35 -12 -64 l-20 -29 25 -25 c14 -14 25 -30 25 -36 0 -13 -55 -13 -79
0 -15 8 -20 3 -30 -30 -9 -29 -17 -40 -31 -40 -14 0 -20 7 -20 23 0 50 -10 64
-41 59 -16 -2 -36 -2 -44 2 -23 8 -3 41 36 62 28 14 30 19 25 48 -13 69 21 86
59 30z m175 -252 c0 -12 -29 -37 -66 -55 -25 -13 -35 -14 -48 -4 -16 11 -12
16 31 40 48 27 83 34 83 19z m-262 -45 l22 -13 -27 -20 c-51 -37 -56 -39 -44
-16 6 11 11 30 11 41 0 24 6 25 38 8z m292 -2 c0 -8 -21 -26 -46 -41 -38 -22
-48 -25 -55 -13 -13 22 -12 24 34 46 50 26 67 28 67 8z m-162 -16 c32 -11 62
-47 62 -74 0 -23 -21 -18 -52 12 -23 22 -28 24 -28 9 0 -9 4 -15 9 -11 13 7
23 -11 32 -59 7 -39 6 -41 -55 -100 -57 -56 -75 -83 -90 -129 -5 -14 -18 -17
-96 -17 l-90 0 6 28 c41 176 115 297 209 338 37 16 54 17 93 3z m180 -41 c-3
-7 -19 -23 -36 -35 l-32 -21 40 5 c54 8 53 -12 -2 -37 -71 -32 -117 -22 -66
14 18 13 19 16 5 16 -30 0 -19 35 16 53 39 19 80 22 75 5z m39 -174 c-12 -13
-139 -54 -165 -54 -16 0 12 14 68 33 88 31 112 36 97 21z"/>
<path d="M638 367 c-3 -19 -2 -25 4 -19 6 6 8 18 6 28 -3 14 -5 12 -10 -9z"/>
<path d="M920 910 c29 -29 25 -61 -15 -119 -44 -64 -38 -67 10 -5 40 53 46
101 17 127 -26 24 -36 21 -12 -3z"/>
<path d="M224 886 c-3 -9 -4 -21 -1 -28 4 -8 6 -6 6 5 1 9 8 17 16 17 18 0 19
-12 3 -28 -9 -9 -8 -12 5 -12 24 0 22 37 -3 50 -16 9 -22 8 -26 -4z"/>
<path d="M239 725 c-28 -15 -54 -65 -46 -87 3 -7 6 -4 6 7 1 30 29 65 65 81
17 7 24 13 16 13 -8 0 -27 -6 -41 -14z"/>
<path d="M990 671 c-8 -16 -6 -23 12 -36 21 -14 24 -14 35 1 9 12 9 21 0 35
-15 24 -34 24 -47 0z m40 -17 c0 -16 -16 -19 -25 -4 -8 13 4 32 16 25 5 -4 9
-13 9 -21z"/>
<path d="M191 603 c-2 -48 94 -94 188 -92 44 2 43 2 -14 9 -108 12 -156 37
-168 85 -4 18 -5 18 -6 -2z"/>
<path d="M442 496 c7 -8 15 -12 17 -11 5 6 -10 25 -20 25 -5 0 -4 -6 3 -14z"/>
<path d="M316 434 c-8 -30 -8 -29 22 -38 12 -4 22 -3 22 3 0 5 3 16 6 24 3 8
-2 17 -13 21 -14 6 -15 4 -6 -5 14 -14 6 -39 -11 -33 -8 3 -11 15 -8 30 6 32
-4 31 -12 -2z"/>
</g>
</svg>
