<svg width="27" height="28" viewBox="0 0 27 28" fill="none" xmlns="http://www.w3.org/2000/svg">
<path d="M20.1726 15.2459C20.1622 13.4742 20.9649 12.139 22.5859 11.1544C21.6793 9.85552 20.3077 9.14113 18.4996 9.00345C16.7877 8.86836 14.9147 10.001 14.2289 10.001C13.5041 10.001 11.8467 9.05021 10.5427 9.05021C7.85136 9.09177 4.99121 11.196 4.99121 15.4771C4.99121 16.7422 5.22241 18.0489 5.68482 19.3945C6.30309 21.1662 8.53198 25.5071 10.857 25.437C12.0727 25.4084 12.9326 24.5745 14.5146 24.5745C16.0499 24.5745 16.8449 25.437 18.2009 25.437C20.5467 25.4032 22.5626 21.4572 23.1496 19.6803C20.0037 18.197 20.1726 15.3368 20.1726 15.2459ZM17.4423 7.32269C18.7594 5.75883 18.6399 4.33525 18.6009 3.82349C17.4371 3.89103 16.0915 4.61581 15.3252 5.50684C14.4809 6.46282 13.9847 7.64481 14.0912 8.97747C15.3485 9.07359 16.4967 8.42674 17.4423 7.32269Z" fill="black"/>
</svg>
