<svg width="28" height="28" viewBox="0 0 28 28" fill="none" xmlns="http://www.w3.org/2000/svg">
<path d="M25.0362 11.9973H24.1434V11.9513H14.1679V16.3848H20.432C19.5181 18.9657 17.0625 20.8184 14.1679 20.8184C10.4953 20.8184 7.51764 17.8407 7.51764 14.1681C7.51764 10.4954 10.4953 7.51776 14.1679 7.51776C15.8632 7.51776 17.4055 8.1573 18.5799 9.20195L21.7149 6.06689C19.7353 4.22198 17.0874 3.08423 14.1679 3.08423C8.04689 3.08423 3.08411 8.04701 3.08411 14.1681C3.08411 20.2891 8.04689 25.2519 14.1679 25.2519C20.289 25.2519 25.2518 20.2891 25.2518 14.1681C25.2518 13.4249 25.1753 12.6995 25.0362 11.9973Z" fill="#FFC107"/>
<path d="M4.36218 9.00909L8.00378 11.6797C8.98913 9.24019 11.3755 7.51776 14.168 7.51776C15.8633 7.51776 17.4056 8.1573 18.58 9.20195L21.715 6.06689C19.7355 4.22198 17.0875 3.08423 14.168 3.08423C9.91075 3.08423 6.21872 5.48776 4.36218 9.00909Z" fill="#FF3D00"/>
<path d="M14.168 25.2522C17.031 25.2522 19.6324 24.1565 21.5992 22.3748L18.1687 19.472C17.0185 20.3467 15.6131 20.8198 14.168 20.8186C11.2851 20.8186 8.83727 18.9804 7.9151 16.415L4.30066 19.1999C6.13503 22.7894 9.86031 25.2522 14.168 25.2522Z" fill="#4CAF50"/>
<path d="M25.0365 11.9977H24.1437V11.9517H14.1682V16.3852H20.4322C19.9951 17.6135 19.2077 18.6868 18.1673 19.4726L18.1689 19.4715L21.5994 22.3743C21.3566 22.5949 25.252 19.7103 25.252 14.1684C25.252 13.4253 25.1756 12.6998 25.0365 11.9977Z" fill="#1976D2"/>
</svg>
